<svg id="Layer_1" data-name="Layer 1" xmlns="http://www.w3.org/2000/svg" viewBox="0 0 56 36"><defs><style>.cls-1{fill:#fff;}</style></defs><title>hamburger</title><path class="cls-1" d="M5876.81,2506h-50a3,3,0,0,1,0-6h50A3,3,0,0,1,5876.81,2506Z" transform="translate(-5823.81 -2500)"/><path class="cls-1" d="M5876.81,2521h-50a3,3,0,0,1,0-6h50A3,3,0,0,1,5876.81,2521Z" transform="translate(-5823.81 -2500)"/><path class="cls-1" d="M5876.81,2536h-50a3,3,0,0,1,0-6h50A3,3,0,0,1,5876.81,2536Z" transform="translate(-5823.81 -2500)"/></svg>