<svg id="Layer_1" data-name="Layer 1" xmlns="http://www.w3.org/2000/svg" viewBox="0 0 342.71 220.04"><defs><style>.cls-1{fill:#fff;}</style></defs><title>nav-logo</title><path class="cls-1" d="M243,500.34c-4.68,5.17-5.44,13.14-5.44,13.24a4.87,4.87,0,0,1-.55,1.86h18.11C249.47,512,245.4,505.31,243,500.34Z" transform="translate(-118 -356.39)"/><path class="cls-1" d="M303.77,501.26c-5.5,5-8,13.07-8,13.16a4.43,4.43,0,0,1-.47,1h19.94C309.86,512.34,306,505.91,303.77,501.26Z" transform="translate(-118 -356.39)"/><path class="cls-1" d="M384.21,501.19c-4.37,4.83-5.08,12.28-5.08,12.37a4.53,4.53,0,0,1-.61,1.88h17.25C390.37,512.29,386.49,505.91,384.21,501.19Z" transform="translate(-118 -356.39)"/><path class="cls-1" d="M221.56,487.82c2.74-.62,11.37-3,17.92-9.29a58.87,58.87,0,0,1,.88,11.3c-11.18,7.22-12.5,22.28-12.55,23a4.84,4.84,0,0,0,.55,2.64H118l52.78-73.33L187.94,466l78.87-109.57L338,455.24l39.7-55.15,83,115.35H403.52a4.54,4.54,0,0,0-2-7.37c-4.49-1.41-8.91-10-10.67-14.64a63.65,63.65,0,0,0-.78-13.66c2.77,2.16,5.25,5,5.85,8.4a4.57,4.57,0,0,0,9-1.58c-1.89-10.77-12.95-17-18.15-19.36-0.2-.56-0.41-1.09-0.6-1.58a15,15,0,1,0-9.06,2c0.25,0.59.53,1.28,0.83,2.06a30.3,30.3,0,0,1-11,13.71,4.57,4.57,0,0,0,4.53,7.93,35.79,35.79,0,0,0,9.72-9.09,54.46,54.46,0,0,1,.59,9.11c-10.44,6.74-11.67,20.81-11.72,21.45a4.53,4.53,0,0,0,.59,2.62H322.68a4.44,4.44,0,0,0-1.95-7.26c-4.39-1.38-8.7-9.75-10.42-14.29a63.36,63.36,0,0,0-1.6-17.56,15,15,0,0,1,9.33,6.32,4.46,4.46,0,1,0,7.45-4.9c-5.67-8.62-14.52-10.5-19.69-10.81l-0.07-.18a14.69,14.69,0,1,0-8.85,2c0.19,0.44.39,0.93,0.6,1.47-6.68,7.77-13,8.05-13.41,8.06h0a4.46,4.46,0,0,0-.08,8.92H284c0.84,0,8.27-.22,16.31-7.23a54.32,54.32,0,0,1,1.11,11.91c-10.12,6.33-14.07,19.45-14.24,20a4.42,4.42,0,0,0,.47,3.54H263.81a4.86,4.86,0,0,0-2.32-7.73c-4.81-1.51-9.54-10.69-11.43-15.67a68.14,68.14,0,0,0-.84-14.62c3,2.32,5.62,5.34,6.27,9a4.89,4.89,0,0,0,4.81,4,5,5,0,0,0,.85-0.07,4.89,4.89,0,0,0,4-5.66c-2-11.53-13.86-18.2-19.43-20.73-0.22-.6-0.43-1.16-0.64-1.69a16.1,16.1,0,1,0-9.7,2.15c0.27,0.63.57,1.37,0.88,2.19-3.26,7-11.44,10.11-15.25,11.22l-2,.51a4.88,4.88,0,0,0,.61,9.68A8.09,8.09,0,0,0,221.56,487.82Z" transform="translate(-118 -356.39)"/><path class="cls-1" d="M144.71,542c0-4.6,1-17,17.51-17,14.86,0,17.16,10,17.44,15.35a1.83,1.83,0,0,1-1.53,2l-7.74,1.74A2.34,2.34,0,0,1,167.6,542c-0.35-3.07-1.6-4.88-5.37-4.88-5.16,0-5.51,3.28-5.51,8.65v10c0,5.37.35,8.65,5.51,8.65,3.84,0,4.88-1.81,5.3-5a2.18,2.18,0,0,1,2.72-2l7.88,1.74a1.86,1.86,0,0,1,1.53,2c-0.28,5.3-2.58,15.28-17.44,15.28-16.53,0-17.51-12.35-17.51-17V542Z" transform="translate(-118 -356.39)"/><path class="cls-1" d="M199.61,526.34a1.85,1.85,0,0,1,2.09,2.09v32.65a1.91,1.91,0,0,0,2.09,2.09h15.56a1.85,1.85,0,0,1,2.09,2.09v7.81a1.85,1.85,0,0,1-2.09,2.09H191.8a1.91,1.91,0,0,1-2.09-2.09V528.43a1.88,1.88,0,0,1,2.09-2.09h7.81Z" transform="translate(-118 -356.39)"/><path class="cls-1" d="M265.33,559.48c0,4.6-1,17-17.51,17s-17.51-12.35-17.51-17V542c0-4.6,1-17,17.51-17s17.51,12.35,17.51,17v17.44Zm-12-13.74c0-5.37-.35-8.65-5.51-8.65s-5.51,3.28-5.51,8.65v10c0,5.37.35,8.65,5.51,8.65s5.51-3.28,5.51-8.65v-10Z" transform="translate(-118 -356.39)"/><path class="cls-1" d="M286.32,526.34a1.85,1.85,0,0,1,2.09,2.09v27.35c0,5.37.35,8.65,5.51,8.65s5.51-3.28,5.51-8.65V528.43a1.88,1.88,0,0,1,2.09-2.09h7.81a1.85,1.85,0,0,1,2.09,2.09v31c0,4.6-1,17-17.51,17s-17.51-12.35-17.51-17v-31a1.88,1.88,0,0,1,2.09-2.09h7.81Z" transform="translate(-118 -356.39)"/><path class="cls-1" d="M340.88,526.34c13.12,0,17.44,5.3,17.44,16.74v15.28c0,11.44-4.33,16.81-17.44,16.81H325.32a1.91,1.91,0,0,1-2.09-2.09V528.5a1.93,1.93,0,0,1,2.09-2.16h15.56Zm0.21,36.83c3.35,0,5-.56,5-4.74V543.08c0-4.33-1.67-4.74-5-4.74h-3.77a1.88,1.88,0,0,0-2.09,2.09v20.65a1.91,1.91,0,0,0,2.09,2.09h3.77Z" transform="translate(-118 -356.39)"/><path class="cls-1" d="M401.35,575.17c-1.88,0-2.37-1.19-1-2.51,3.91-4,9.35-10.53,11.37-14.86,0.21-.49-0.14-0.84-0.77-0.84-10.88-.42-16.39-6.07-16.39-14.93,0-9.14,5.86-17,17.51-17s17.51,7.81,17.51,17c0,8.79-7.33,22.12-15.42,32a3,3,0,0,1-2.51,1.19H401.35Zm16.18-34.39c0-3.56-2.16-5.23-5.51-5.23-3.07,0-5.51,1.67-5.51,5.23S408.68,546,412,546C415.1,546,417.54,544.34,417.54,540.78Z" transform="translate(-118 -356.39)"/></svg>